<svg width="24" height="24" viewBox="0 0 24 24" fill="none" xmlns="http://www.w3.org/2000/svg">
<path d="M18.5934 8.19486C19.038 8.52237 19.133 9.14837 18.8055 9.59306C18.5511 9.93847 18.2967 10.2668 18.0735 10.5528C17.628 11.1236 17.0147 11.8882 16.3483 12.6556C15.6863 13.4181 14.9522 14.2064 14.267 14.8119C13.9255 15.1136 13.5725 15.3911 13.2283 15.5986C12.9116 15.7895 12.4764 16 12.0003 16C11.5242 16 11.0889 15.7895 10.7722 15.5986C10.428 15.3911 10.0751 15.1136 9.73357 14.8119C9.04828 14.2064 8.31424 13.4181 7.6522 12.6556C6.98585 11.8882 6.37253 11.1236 5.92701 10.5528C5.70384 10.2668 5.44939 9.93847 5.195 9.59307C4.86749 9.14837 4.96248 8.52237 5.40717 8.19486C5.58593 8.0632 5.79399 7.99983 6.00019 8H12.0003H18.0003C18.2065 7.99983 18.4146 8.0632 18.5934 8.19486Z" fill="#8F8881"/>
</svg>
