<svg width="24" height="24" viewBox="0 0 24 24" fill="none" xmlns="http://www.w3.org/2000/svg">
<path d="M7.00037 2C7.00037 1.44772 6.55265 1 6.00037 1C5.44809 1 5.00037 1.44772 5.00037 2V2.44885C5.38069 2.32821 5.78591 2.24208 6.2157 2.17961C6.46365 2.14357 6.72509 2.11476 7.00037 2.09173V2Z" fill="#8F8881"/>
<path d="M19.0004 2.44885C18.6201 2.32821 18.2149 2.24208 17.7851 2.17961C17.5371 2.14357 17.2757 2.11476 17.0004 2.09173V2C17.0004 1.44772 17.4481 1 18.0004 1C18.5527 1 19.0004 1.44772 19.0004 2V2.44885Z" fill="#8F8881"/>
<path fill-rule="evenodd" clip-rule="evenodd" d="M13.0292 2H10.9716C9.02331 1.99997 7.45178 1.99994 6.2157 2.17961C4.92572 2.3671 3.85717 2.76781 3.01839 3.6746C2.18986 4.57031 1.83316 5.69272 1.66453 7.04866C1.50034 8.36894 1.50035 10.0541 1.50037 12.1739V12.8261C1.50035 14.9459 1.50034 16.6311 1.66453 17.9513C1.83316 19.3073 2.18986 20.4297 3.01839 21.3254C3.85717 22.2322 4.92572 22.6329 6.2157 22.8204C7.45179 23.0001 9.0233 23 10.9716 23H13.0292C14.9775 23 16.549 23.0001 17.7851 22.8204C19.0751 22.6329 20.1436 22.2322 20.9824 21.3254C21.8109 20.4297 22.1676 19.3073 22.3362 17.9513C22.5004 16.6311 22.5004 14.9459 22.5004 12.8261V12.1739C22.5004 10.0541 22.5004 8.36895 22.3362 7.04866C22.1676 5.69272 21.8109 4.57031 20.9824 3.6746C20.1436 2.76781 19.0751 2.3671 17.7851 2.17961C16.549 1.99994 14.9775 1.99997 13.0292 2ZM4.4982 9C4.03958 9 3.81027 9 3.66422 9.14417C3.51818 9.28833 3.51524 9.51472 3.50937 9.96751C3.50064 10.6407 3.50037 11.3942 3.50037 12.2432V12.7568C3.50037 14.9616 3.50219 16.5221 3.64924 17.7045C3.79364 18.8656 4.063 19.5094 4.48659 19.9673C4.89993 20.4142 5.46507 20.6903 6.50337 20.8412C7.57895 20.9975 9.00462 21 11.0504 21H12.9504C14.9961 21 16.4218 20.9975 17.4974 20.8412C18.5357 20.6903 19.1008 20.4142 19.5142 19.9673C19.9378 19.5094 20.2071 18.8656 20.3515 17.7045C20.4986 16.5221 20.5004 14.9616 20.5004 12.7568V12.2432C20.5004 11.3942 20.5001 10.6407 20.4914 9.96751C20.4855 9.51472 20.4826 9.28833 20.3366 9.14417C20.1905 9 19.9612 9 19.5026 9H4.4982Z" fill="#8F8881"/>
<path fill-rule="evenodd" clip-rule="evenodd" d="M6.75037 13C6.75037 12.3096 7.31001 11.75 8.00037 11.75H8.00934C8.6997 11.75 9.25934 12.3096 9.25934 13C9.25934 13.6904 8.6997 14.25 8.00934 14.25H8.00037C7.31001 14.25 6.75037 13.6904 6.75037 13ZM10.7459 13C10.7459 12.3096 11.3056 11.75 11.9959 11.75H12.0049C12.6952 11.75 13.2549 12.3096 13.2549 13C13.2549 13.6904 12.6952 14.25 12.0049 14.25H11.9959C11.3056 14.25 10.7459 13.6904 10.7459 13ZM14.7414 13C14.7414 12.3096 15.3011 11.75 15.9914 11.75H16.0004C16.6908 11.75 17.2504 12.3096 17.2504 13C17.2504 13.6904 16.6908 14.25 16.0004 14.25H15.9914C15.3011 14.25 14.7414 13.6904 14.7414 13ZM6.75037 17C6.75037 16.3096 7.31001 15.75 8.00037 15.75H8.00934C8.6997 15.75 9.25934 16.3096 9.25934 17C9.25934 17.6904 8.6997 18.25 8.00934 18.25H8.00037C7.31001 18.25 6.75037 17.6904 6.75037 17ZM10.7459 17C10.7459 16.3096 11.3056 15.75 11.9959 15.75H12.0049C12.6952 15.75 13.2549 16.3096 13.2549 17C13.2549 17.6904 12.6952 18.25 12.0049 18.25H11.9959C11.3056 18.25 10.7459 17.6904 10.7459 17Z" fill="#8F8881"/>
</svg>
